<svg width="30" height="30" viewBox="0 0 30 30" fill="none" xmlns="http://www.w3.org/2000/svg">
<path d="M17.7018 11.6132C17.5993 11.3234 17.4413 11.0598 17.2404 10.8354C16.8131 10.358 16.1923 10.0576 15.5012 10.0576H13.6951C12.5448 10.0576 11.6123 10.9901 11.6123 12.1404C11.6123 13.1192 12.2938 13.966 13.25 14.1751L15.9998 14.7767C17.071 15.011 17.8345 15.9603 17.8345 17.0568C17.8345 18.3455 16.7899 19.391 15.5012 19.391H13.9457C12.9297 19.391 12.0654 18.7417 11.7451 17.8354" stroke="black" stroke-width="2.2" stroke-linecap="round" stroke-linejoin="round"/>
<path d="M14.7236 10.058V7.72461" stroke="black" stroke-width="2.2" stroke-linecap="round" stroke-linejoin="round"/>
<path d="M14.7236 21.7244V19.3911" stroke="black" stroke-width="2.2" stroke-linecap="round" stroke-linejoin="round"/>
<path d="M4.99707 27.9971V22.9971H9.99704" stroke="black" stroke-width="2.2" stroke-linecap="round" stroke-linejoin="round"/>
<path d="M27.7761 12.6079C29.0201 19.2238 24.9715 25.7828 18.3615 27.5538C13.3024 28.9094 8.14044 27.086 4.99658 23.308" stroke="black" stroke-width="2.2" stroke-linecap="round" stroke-linejoin="round"/>
<path d="M2.22397 17.3921C0.979893 10.7763 5.0285 4.21734 11.6385 2.44619C16.6973 1.0907 21.8589 2.91384 25.0029 6.6913" stroke="black" stroke-width="2.2" stroke-linecap="round" stroke-linejoin="round"/>
<path d="M25.003 2.00342V7.00342H20.0029" stroke="black" stroke-width="2.2" stroke-linecap="round" stroke-linejoin="round"/>
</svg>
