<svg width="21" height="21" viewBox="0 0 21 21" fill="none" xmlns="http://www.w3.org/2000/svg">
<path d="M20.6738 10.4641C20.6738 12.4552 20.0794 14.401 18.9668 16.0522C17.8542 17.7034 16.2739 18.9849 14.4285 19.7325C12.5831 20.4801 10.5565 20.6597 8.60836 20.2485C6.6602 19.8372 4.87916 18.8538 3.49336 17.4241C2.10757 15.9944 1.18012 14.1835 0.829815 12.2235C0.479506 10.2635 0.722287 8.24346 1.52706 6.42225C2.33183 4.60104 3.66196 3.06154 5.34706 2.00093C7.03216 0.940315 8.99551 0.406889 10.9856 0.468974L10.9257 2.39124C9.31829 2.3411 7.73252 2.77193 6.3715 3.62857C5.01048 4.4852 3.93617 5.72863 3.28617 7.19958C2.63617 8.67054 2.44008 10.302 2.72302 11.8851C3.00596 13.4682 3.75504 14.9308 4.87431 16.0855C5.99359 17.2403 7.4321 18.0346 9.00559 18.3667C10.5791 18.6989 12.2159 18.5538 13.7064 17.95C15.1969 17.3462 16.4732 16.3111 17.3719 14.9775C18.2706 13.6438 18.7506 12.0723 18.7506 10.4641H20.6738Z" fill="#0094FF"/>
<path d="M1.7332 5.9847C2.55557 4.3433 3.81392 2.95997 5.37034 1.98632C6.92676 1.01266 8.72119 0.486253 10.5569 0.464794C12.3927 0.443336 14.1989 0.927652 15.7777 1.86466C17.3565 2.80167 18.6468 4.15521 19.5073 5.77694C20.3678 7.39866 20.7653 9.22597 20.6561 11.0586C20.547 12.8912 19.9355 14.6585 18.8886 16.1666C17.8416 17.6747 16.3998 18.8655 14.721 19.6085C13.0421 20.3516 11.1912 20.6181 9.37096 20.3789L9.62153 18.4721C11.0917 18.6653 12.5867 18.45 13.9426 17.8499C15.2986 17.2498 16.4631 16.288 17.3087 15.0699C18.1543 13.8518 18.6482 12.4245 18.7363 10.9443C18.8245 9.46409 18.5035 7.98821 17.8085 6.67837C17.1134 5.36854 16.0713 4.27531 14.7961 3.51851C13.521 2.76171 12.0621 2.37053 10.5794 2.38787C9.09672 2.4052 7.6474 2.83036 6.39031 3.61677C5.13322 4.40317 4.11687 5.52046 3.45266 6.84618L1.7332 5.9847Z" fill="#D7D7D7"/>
</svg>
