<svg width="21" height="21" viewBox="0 0 21 21" fill="none" xmlns="http://www.w3.org/2000/svg">
<path d="M20.6738 10.4641C20.6738 12.4552 20.0794 14.401 18.9668 16.0522C17.8542 17.7034 16.2739 18.9849 14.4285 19.7325C12.5831 20.4801 10.5565 20.6597 8.60836 20.2485C6.6602 19.8372 4.87916 18.8538 3.49336 17.4241C2.10757 15.9944 1.18012 14.1835 0.829815 12.2235C0.479506 10.2635 0.722287 8.24346 1.52706 6.42225C2.33183 4.60104 3.66196 3.06154 5.34706 2.00093C7.03216 0.940315 8.99551 0.406889 10.9856 0.468974L10.9257 2.39124C9.31829 2.3411 7.73252 2.77193 6.3715 3.62857C5.01048 4.4852 3.93617 5.72863 3.28617 7.19958C2.63617 8.67054 2.44008 10.302 2.72302 11.8851C3.00596 13.4682 3.75504 14.9308 4.87431 16.0855C5.99359 17.2403 7.4321 18.0346 9.00559 18.3667C10.5791 18.6989 12.2159 18.5538 13.7064 17.95C15.1969 17.3462 16.4732 16.3111 17.3719 14.9775C18.2706 13.6438 18.7506 12.0723 18.7506 10.4641H20.6738Z" fill="#0094FF"/>
</svg>
