<svg width="160" height="46" viewBox="0 0 160 46" fill="none" xmlns="http://www.w3.org/2000/svg">
<path d="M1.42578 27.2851C2.47236 24.407 6.54353 17.8973 13.8277 15.5111C10.5624 18.6508 4.14687 24.721 1.42578 27.2851Z" fill="#FFF8D8" stroke="black" stroke-width="0.1"/>
<path d="M12.6695 44.28C12.6695 44.4667 11.5229 44.56 9.22953 44.56C6.96286 44.56 5.82953 44.4667 5.82953 44.28V23.68H4.46953C3.82953 23.68 3.38953 23.0933 3.14953 21.92C3.06953 21.5467 3.02953 21.0667 3.02953 20.48C3.02953 19.8933 3.2162 19.2 3.58953 18.4C4.12286 17.2267 4.9762 16.64 6.14953 16.64C6.92286 16.64 7.62953 16.8267 8.26953 17.2C8.9362 17.5467 9.38953 17.88 9.62953 18.2C9.8962 18.4933 10.0295 18.6667 10.0295 18.72C11.8162 17.3333 13.7495 16.64 15.8295 16.64C17.9095 16.64 19.6962 17.4533 21.1895 19.08C22.6829 20.68 23.4295 23.1733 23.4295 26.56C23.4295 29.92 22.6829 32.5333 21.1895 34.4C19.6962 36.24 17.8029 37.16 15.5095 37.16C14.4695 37.16 13.5229 37.1067 12.6695 37V44.28ZM14.3095 23.64C13.8562 23.64 13.4162 23.7867 12.9895 24.08V31.16C13.4429 31.2133 13.8029 31.24 14.0695 31.24C14.3629 31.24 14.5895 31.24 14.7495 31.24C15.8429 31.1333 16.3895 29.7333 16.3895 27.04C16.3895 24.7733 15.6962 23.64 14.3095 23.64ZM35.017 36.96C35.017 37.1467 33.8037 37.24 31.377 37.24C28.9504 37.1867 27.737 37.08 27.737 36.92V23.64H26.657C26.2304 23.64 25.8837 23.3867 25.617 22.88C25.377 22.3467 25.257 21.6933 25.257 20.92C25.257 18.04 26.1104 16.6 27.817 16.6C29.017 16.6 30.017 16.9733 30.817 17.72C31.617 18.44 32.017 19.2667 32.017 20.2C32.577 19.1067 33.3237 18.24 34.257 17.6C35.217 16.9333 36.1904 16.6 37.177 16.6C38.7237 16.6 39.657 17 39.977 17.8C40.057 18.0133 40.097 18.3333 40.097 18.76C40.097 19.16 39.9637 19.8933 39.697 20.96C39.457 22.0267 39.2037 22.8 38.937 23.28C38.6704 23.76 38.5104 24 38.457 24C38.4037 24 38.1504 23.9067 37.697 23.72C37.2704 23.5067 36.8837 23.4 36.537 23.4C35.5237 23.4 35.017 24.2 35.017 25.8V36.96ZM57.2364 35.92C55.5564 36.9067 53.3964 37.4 50.7564 37.4C48.1164 37.4 45.8897 36.5067 44.0764 34.72C42.2631 32.9067 41.3564 30.4133 41.3564 27.24C41.3564 24.04 42.2231 21.4667 43.9564 19.52C45.7164 17.5733 47.9297 16.6 50.5964 16.6C53.2631 16.6 55.3164 17.28 56.7564 18.64C58.2231 20 58.9564 21.6533 58.9564 23.6C58.9564 27.92 56.4764 30.08 51.5164 30.08H48.7564C48.7564 30.88 48.9697 31.44 49.3964 31.76C49.8497 32.0533 50.5031 32.2 51.3564 32.2C53.2231 32.2 54.9964 31.7733 56.6764 30.92C56.7031 30.8933 56.8231 31.08 57.0364 31.48C57.6764 32.6267 57.9964 33.6 57.9964 34.4C57.9964 35.1733 57.7431 35.68 57.2364 35.92ZM52.2364 24.36C52.2364 23.24 51.6897 22.68 50.5964 22.68C50.0897 22.68 49.6497 22.84 49.2764 23.16C48.9297 23.4533 48.7564 23.8933 48.7564 24.48V25.72H50.9164C51.7964 25.72 52.2364 25.2667 52.2364 24.36ZM62.4095 29.8C64.5695 31.1067 66.2762 31.76 67.5295 31.76C68.3295 31.76 68.7295 31.48 68.7295 30.92C68.7295 30.52 68.0362 30 66.6495 29.36C63.3162 28 61.6495 25.7733 61.6495 22.68C61.6495 20.7067 62.3695 19.2 63.8095 18.16C65.2495 17.12 66.9695 16.6 68.9695 16.6C70.9962 16.6 72.7029 16.8133 74.0895 17.24C75.5029 17.6667 76.2095 18.2267 76.2095 18.92C76.2095 19.5067 75.9162 20.28 75.3295 21.24C74.7695 22.2 74.3829 22.72 74.1695 22.8C73.0229 22.16 71.7829 21.84 70.4495 21.84C69.7295 21.84 69.3695 22.0933 69.3695 22.6C69.3695 22.92 69.5029 23.2 69.7695 23.44C70.0629 23.6533 70.5829 23.9333 71.3295 24.28C72.0762 24.6 72.6895 24.8933 73.1695 25.16C73.6762 25.4267 74.2362 25.8 74.8495 26.28C76.1295 27.2933 76.7695 28.6133 76.7695 30.24C76.7695 32.3733 76.0629 34.1067 74.6495 35.44C73.2362 36.7467 71.1029 37.4 68.2495 37.4C66.3562 37.4 64.6362 37.08 63.0895 36.44C61.5429 35.8 60.7695 34.92 60.7695 33.8C60.7695 33.0533 60.9429 32.2667 61.2895 31.44C61.6629 30.6133 62.0362 30.0667 62.4095 29.8ZM80.4173 29.8C82.5773 31.1067 84.284 31.76 85.5373 31.76C86.3373 31.76 86.7373 31.48 86.7373 30.92C86.7373 30.52 86.044 30 84.6573 29.36C81.324 28 79.6573 25.7733 79.6573 22.68C79.6573 20.7067 80.3773 19.2 81.8173 18.16C83.2573 17.12 84.9773 16.6 86.9773 16.6C89.004 16.6 90.7107 16.8133 92.0973 17.24C93.5107 17.6667 94.2173 18.2267 94.2173 18.92C94.2173 19.5067 93.924 20.28 93.3373 21.24C92.7773 22.2 92.3907 22.72 92.1773 22.8C91.0307 22.16 89.7907 21.84 88.4573 21.84C87.7373 21.84 87.3773 22.0933 87.3773 22.6C87.3773 22.92 87.5107 23.2 87.7773 23.44C88.0707 23.6533 88.5907 23.9333 89.3373 24.28C90.084 24.6 90.6973 24.8933 91.1773 25.16C91.684 25.4267 92.244 25.8 92.8573 26.28C94.1373 27.2933 94.7773 28.6133 94.7773 30.24C94.7773 32.3733 94.0707 34.1067 92.6573 35.44C91.244 36.7467 89.1107 37.4 86.2573 37.4C84.364 37.4 82.644 37.08 81.0973 36.44C79.5507 35.8 78.7773 34.92 78.7773 33.8C78.7773 33.0533 78.9507 32.2667 79.2973 31.44C79.6707 30.6133 80.044 30.0667 80.4173 29.8ZM101.265 37.08C98.8385 37.08 97.6252 36.8133 97.6252 36.28V10.36C97.6252 9.45333 98.0385 9 98.8652 9H105.905C109.852 9 112.692 9.81333 114.425 11.44C116.185 13.0667 117.065 15.4267 117.065 18.52C117.065 21.08 116.238 23.4267 114.585 25.56C113.758 26.6267 112.545 27.48 110.945 28.12C109.345 28.76 107.478 29.08 105.345 29.08V36.24C105.345 36.56 104.838 36.7867 103.825 36.92C102.838 37.0267 101.985 37.08 101.265 37.08ZM105.345 15.96V22.28H105.865C106.798 22.28 107.585 21.9867 108.225 21.4C108.865 20.8133 109.185 19.9867 109.185 18.92C109.185 17.8533 108.958 17.0933 108.505 16.64C108.078 16.1867 107.305 15.96 106.185 15.96H105.345ZM121.902 22.48C121.155 21.1467 120.782 20.0667 120.782 19.24C120.782 18.3867 121.009 17.84 121.462 17.6C122.982 16.9333 125.062 16.6 127.702 16.6C130.369 16.6 132.249 17.2267 133.342 18.48C134.435 19.7067 134.982 21.5333 134.982 23.96V30.28H136.342C136.795 30.28 137.142 30.5467 137.382 31.08C137.649 31.6133 137.782 32.3467 137.782 33.28C137.782 34.2133 137.542 35.1333 137.062 36.04C136.609 36.9467 135.982 37.4 135.182 37.4C133.742 37.4 132.582 37.0133 131.702 36.24C131.302 35.92 130.995 35.5333 130.782 35.08C129.555 36.6267 127.649 37.4 125.062 37.4C123.115 37.4 121.475 36.7067 120.142 35.32C118.809 33.9333 118.142 32.2933 118.142 30.4C118.142 26.0533 120.742 23.88 125.942 23.88H128.142V23.48C128.142 22.7867 128.022 22.3467 127.782 22.16C127.569 21.9467 127.049 21.84 126.222 21.84C125.209 21.84 123.769 22.0533 121.902 22.48ZM125.102 29.84C125.102 30.4267 125.262 30.88 125.582 31.2C125.902 31.4933 126.302 31.64 126.782 31.64C127.289 31.64 127.742 31.44 128.142 31.04V27.96H127.022C125.742 27.96 125.102 28.5867 125.102 29.84ZM138.646 17.2C138.646 16.9067 139.859 16.76 142.286 16.76C144.739 16.76 146.006 16.8933 146.086 17.16L148.966 26.6L151.726 17.08C151.833 16.8667 152.659 16.76 154.206 16.76C157.753 16.76 159.446 16.9333 159.286 17.28L149.886 44.04C149.859 44.2 149.126 44.28 147.686 44.28C146.273 44.28 144.953 44.2267 143.726 44.12C142.499 44.04 141.913 43.9333 141.966 43.8L145.446 35.4L138.646 17.2Z" fill="#0094FF"/>
<path d="M13.8992 15.418L2.39138 15.1916L1.24956 27.3537C4.98137 20.5653 7.67654 17.8207 13.8992 15.418Z" fill="#E3DAAD" stroke="black" stroke-width="0.1"/>
<path d="M13.8992 15.418L2.39138 15.1916L1.24956 27.3537C4.98137 20.5653 7.67654 17.8207 13.8992 15.418Z" fill="#E3DAAD" stroke="black" stroke-width="0.1"/>
<path d="M2.3679 15.2218L2.99584 24.3023" stroke="black" stroke-width="0.1"/>
<path d="M2.43583 15.2588L5.20488 21.3228" stroke="black" stroke-width="0.1"/>
<path d="M2.36787 15.1783L6.79974 19.587" stroke="black" stroke-width="0.1"/>
<path d="M2.36818 15.2776L8.54594 18.1455" stroke="black" stroke-width="0.1"/>
<path d="M2.40025 15.2515L11.8388 16.315" stroke="black" stroke-width="0.1"/>
<path d="M12.886 15.9821C12.8337 20.0114 10.6254 27.6932 2.21094 26.1862" stroke="#FF1717" stroke-width="0.3"/>
</svg>
