<svg width="32" height="32" viewBox="0 0 32 32" fill="none" xmlns="http://www.w3.org/2000/svg">
<path d="M16 31C24.2844 31 31 24.2844 31 16C31 7.71573 24.2844 1 16 1C7.71573 1 1 7.71573 1 16C1 24.2844 7.71573 31 16 31Z" stroke="#FF4218" stroke-width="2" stroke-linecap="round" stroke-linejoin="round"/>
<path d="M9.39893 21.6659V15.7992C9.39893 14.9892 10.0556 14.3325 10.8656 14.3325H21.1323C21.9423 14.3325 22.5989 14.9892 22.5989 15.7992V21.6659C22.5989 22.4757 21.9423 23.1325 21.1323 23.1325H10.8656C10.0556 23.1325 9.39893 22.4757 9.39893 21.6659Z" stroke="#FF4218" stroke-width="2" stroke-linejoin="round"/>
<path d="M11.6006 14.3331V11.3998C11.6006 8.96969 13.5705 6.99976 16.0006 6.99976C18.4306 6.99976 20.4006 8.96969 20.4006 11.3998V14.3331" stroke="#FF4218" stroke-width="2" stroke-linecap="round" stroke-linejoin="round"/>
</svg>
