<svg width="31" height="32" viewBox="0 0 31 32" fill="none" xmlns="http://www.w3.org/2000/svg">
<g filter="url(#filter0_d_2372_2076)">
<circle cx="15.6364" cy="12.1212" r="11.3636" fill="#FFE6E6"/>
<circle cx="15.6364" cy="12.1212" r="10.3636" stroke="#FF0000" stroke-width="2"/>
</g>
<path d="M14.9697 18.7273V4.18183H15.9015V18.7273H14.9697ZM18.1061 8.54546C18.0379 7.96971 17.7614 7.52274 17.2765 7.20455C16.7917 6.88637 16.197 6.72728 15.4924 6.72728C14.9773 6.72728 14.5265 6.81061 14.1401 6.97728C13.7576 7.14395 13.4583 7.37311 13.2424 7.66478C13.0303 7.95645 12.9242 8.28789 12.9242 8.6591C12.9242 8.9697 12.9981 9.23675 13.1458 9.46024C13.2973 9.67993 13.4905 9.86364 13.7254 10.0114C13.9602 10.1553 14.2064 10.2746 14.464 10.3693C14.7216 10.4602 14.9583 10.5341 15.1742 10.5909L16.3561 10.9091C16.6591 10.9886 16.9962 11.0985 17.3674 11.2386C17.7424 11.3788 18.1004 11.5701 18.4413 11.8125C18.786 12.0511 19.0701 12.358 19.2936 12.733C19.517 13.108 19.6288 13.5682 19.6288 14.1136C19.6288 14.7424 19.464 15.3106 19.1345 15.8182C18.8087 16.3258 18.3314 16.7292 17.7026 17.0284C17.0776 17.3277 16.3182 17.4773 15.4242 17.4773C14.5909 17.4773 13.8693 17.3428 13.2595 17.0739C12.6534 16.8049 12.1761 16.4299 11.8276 15.9489C11.4829 15.4678 11.2879 14.9091 11.2424 14.2727H12.697C12.7348 14.7121 12.8826 15.0758 13.1401 15.3636C13.4015 15.6477 13.7311 15.8599 14.1288 16C14.5303 16.1364 14.9621 16.2046 15.4242 16.2046C15.9621 16.2046 16.4451 16.1174 16.8731 15.9432C17.3011 15.7652 17.6401 15.5189 17.8901 15.2046C18.1401 14.8864 18.2651 14.5152 18.2651 14.0909C18.2651 13.7046 18.1572 13.3902 17.9413 13.1477C17.7254 12.9053 17.4413 12.7083 17.089 12.5568C16.7367 12.4053 16.3561 12.2727 15.947 12.1591L14.5151 11.75C13.6061 11.4886 12.8864 11.1155 12.3561 10.6307C11.8258 10.1458 11.5606 9.51137 11.5606 8.72728C11.5606 8.07577 11.7367 7.50758 12.089 7.02274C12.4451 6.5341 12.9223 6.15531 13.5208 5.88637C14.1231 5.61364 14.7954 5.47728 15.5379 5.47728C16.2879 5.47728 16.9545 5.61175 17.5379 5.88069C18.1212 6.14584 18.5833 6.50948 18.9242 6.9716C19.2689 7.43372 19.4508 7.95834 19.4697 8.54546H18.1061Z" fill="#FF0000"/>
<rect x="2.75757" y="0.757568" width="12.1212" height="4.54545" rx="2.27273" fill="#FFE5E5"/>
<rect x="7.30304" y="0.757568" width="6.81818" height="1.51515" rx="0.757576" fill="#FF0000"/>
<rect x="7.30304" y="0.757568" width="6.81818" height="1.51515" rx="0.757576" fill="#FF0000"/>
<path d="M8.81818 1.51514C8.81818 1.09675 9.15735 0.757568 9.57575 0.757568H14.8788C15.2972 0.757568 15.6364 1.09675 15.6364 1.51514V1.51514C15.6364 1.93354 15.2972 2.27272 14.8788 2.27272H9.57575C9.15736 2.27272 8.81818 1.93354 8.81818 1.51514V1.51514Z" fill="#FF0000"/>
<rect x="2.75757" y="3.0303" width="6.81818" height="1.51515" rx="0.757576" fill="#FF0000"/>
<rect x="2.75757" y="0.757568" width="3.78788" height="1.51515" rx="0.757576" fill="#FF0000"/>
<defs>
<filter id="filter0_d_2372_2076" x="0.272736" y="0.757568" width="30.7273" height="30.7273" filterUnits="userSpaceOnUse" color-interpolation-filters="sRGB">
<feFlood flood-opacity="0" result="BackgroundImageFix"/>
<feColorMatrix in="SourceAlpha" type="matrix" values="0 0 0 0 0 0 0 0 0 0 0 0 0 0 0 0 0 0 127 0" result="hardAlpha"/>
<feOffset dy="4"/>
<feGaussianBlur stdDeviation="2"/>
<feComposite in2="hardAlpha" operator="out"/>
<feColorMatrix type="matrix" values="0 0 0 0 0 0 0 0 0 0 0 0 0 0 0 0 0 0 0.25 0"/>
<feBlend mode="normal" in2="BackgroundImageFix" result="effect1_dropShadow_2372_2076"/>
<feBlend mode="normal" in="SourceGraphic" in2="effect1_dropShadow_2372_2076" result="shape"/>
</filter>
</defs>
</svg>
