<svg width="22" height="22" viewBox="0 0 22 22" fill="none" xmlns="http://www.w3.org/2000/svg">
<path d="M8.03414 3.69231L8.75465 1.98462C8.87617 1.69548 9.08996 1.44679 9.36801 1.2711C9.64608 1.09541 9.97544 1.00092 10.313 1H11.687C12.0245 1.00092 12.3539 1.09541 12.6319 1.2711C12.91 1.44679 13.1238 1.69548 13.2453 1.98462L13.9658 3.69231L16.4122 4.98462L18.3894 4.70769C18.7186 4.66666 19.0538 4.71642 19.3522 4.85065C19.6505 4.98488 19.8986 5.19751 20.065 5.46154L20.7353 6.53846C20.907 6.80669 20.9863 7.11643 20.9623 7.4268C20.9383 7.73717 20.8125 8.03358 20.6012 8.27692L19.378 9.70769V12.2923L20.6347 13.7231C20.846 13.9664 20.9719 14.2628 20.9958 14.5732C21.0198 14.8836 20.9405 15.1933 20.7688 15.4615L20.0985 16.5385C19.9321 16.8025 19.684 17.0151 19.3857 17.1494C19.0873 17.2835 18.7522 17.3334 18.4229 17.2923L16.4457 17.0154L13.9993 18.3077L13.2788 20.0154C13.1573 20.3045 12.9435 20.5532 12.6655 20.7289C12.3874 20.9046 12.058 20.9991 11.7205 21H10.313C9.97544 20.9991 9.64608 20.9046 9.36801 20.7289C9.08996 20.5532 8.87617 20.3045 8.75465 20.0154L8.03414 18.3077L5.58774 17.0154L3.61051 17.2923C3.28128 17.3334 2.94619 17.2835 2.64783 17.1494C2.34949 17.0151 2.10133 16.8025 1.93489 16.5385L1.26464 15.4615C1.09289 15.1933 1.01377 14.8836 1.0377 14.5732C1.06162 14.2628 1.1875 13.9664 1.39869 13.7231L2.62189 12.2923V9.70769L1.36518 8.27692C1.15398 8.03358 1.02811 7.73717 1.00418 7.4268C0.980256 7.11643 1.05938 6.80669 1.23113 6.53846L1.90138 5.46154C2.06782 5.19751 2.31597 4.98488 2.61432 4.85065C2.91268 4.71642 3.24777 4.66666 3.57699 4.70769L5.55422 4.98462L8.03414 3.69231ZM7.64875 11C7.64875 11.6086 7.8453 12.2034 8.21353 12.7094C8.58178 13.2154 9.10516 13.6098 9.71751 13.8427C10.3299 14.0756 11.0037 14.1365 11.6538 14.0178C12.3038 13.8991 12.901 13.606 13.3697 13.1757C13.8383 12.7454 14.1575 12.1971 14.2868 11.6003C14.4161 11.0034 14.3498 10.3848 14.0961 9.82251C13.8425 9.26028 13.4129 8.77972 12.8618 8.44163C12.3107 8.10354 11.6628 7.92308 11 7.92308C10.1112 7.92308 9.25878 8.24725 8.63031 8.82429C8.00183 9.40132 7.64875 10.184 7.64875 11Z" stroke="black" stroke-width="2" stroke-linecap="round" stroke-linejoin="round"/>
</svg>
