<svg width="32" height="32" viewBox="0 0 32 32" fill="none" xmlns="http://www.w3.org/2000/svg">
<path d="M16 31C24.2844 31 31 24.2844 31 16C31 7.71573 24.2844 1 16 1C7.71573 1 1 7.71573 1 16C1 24.2844 7.71573 31 16 31Z" stroke="#0094FF" stroke-width="2" stroke-linecap="round" stroke-linejoin="round"/>
<path d="M15.9997 18.3079C19.186 18.3079 21.7689 15.7249 21.7689 12.5386C21.7689 9.35239 19.186 6.76941 15.9997 6.76941C12.8134 6.76941 10.2305 9.35239 10.2305 12.5386C10.2305 15.7249 12.8134 18.3079 15.9997 18.3079Z" stroke="#0094FF" stroke-width="2" stroke-linecap="round" stroke-linejoin="round"/>
<path d="M6.14551 27.3073C7.17529 25.617 8.62261 24.2199 10.3483 23.2507C12.074 22.2811 14.02 21.772 15.9994 21.772C17.9787 21.772 19.9247 22.2811 21.6504 23.2507C23.3762 24.2199 24.8233 25.617 25.8532 27.3073" stroke="#0094FF" stroke-width="2" stroke-linecap="round" stroke-linejoin="round"/>
</svg>
