<svg width="28" height="28" viewBox="0 0 28 28" fill="none" xmlns="http://www.w3.org/2000/svg">
<path d="M3.11111 24.8889H26.4444C27.3036 24.8889 28 25.5853 28 26.4444C28 27.3036 27.3036 28 26.4444 28H1.55556C0.696446 28 0 27.3036 0 26.4444V1.55556C0 0.696446 0.696446 0 1.55556 0C2.41467 0 3.11111 0.696446 3.11111 1.55556V24.8889Z" fill="#4AD991"/>
<path opacity="0.5" d="M8.91305 18.175C8.32547 18.8017 7.34106 18.8335 6.71431 18.2459C6.08756 17.6583 6.0558 16.6739 6.64338 16.0472L12.4767 9.82494C13.045 9.21879 13.9893 9.16623 14.6213 9.70555L19.2253 13.6343L25.224 6.03606C25.7563 5.36176 26.7345 5.24668 27.4088 5.77903C28.0831 6.31137 28.1982 7.28955 27.6658 7.96385L20.6658 16.8305C20.1191 17.5231 19.1063 17.6227 18.4351 17.0499L13.7311 13.0358L8.91305 18.175Z" fill="#4AD991"/>
</svg>
