<svg width="30" height="34" viewBox="0 0 30 34" fill="none" xmlns="http://www.w3.org/2000/svg">
<path fill-rule="evenodd" clip-rule="evenodd" d="M0 11.3167L12.9005 18.7648C13.0394 18.845 13.1851 18.9029 13.3333 18.9397V33.3849L0.920065 26.0387C0.349784 25.7012 0 25.0878 0 24.4251V11.3167ZM30 11.1187V24.4251C30 25.0878 29.6502 25.7012 29.0799 26.0387L16.6667 33.3849V18.8131C16.6969 18.798 16.7269 18.7819 16.7566 18.7648L30 11.1187Z" fill="#FEC53D"/>
<path opacity="0.499209" fill-rule="evenodd" clip-rule="evenodd" d="M0.405273 7.70142C0.562849 7.50244 0.761736 7.33426 0.993616 7.21076L14.1186 0.2201C14.6696 -0.0733665 15.3305 -0.0733665 15.8815 0.2201L29.0065 7.21076C29.1852 7.30596 29.3444 7.42771 29.4801 7.56966L15.0899 15.8778C14.9953 15.9325 14.9081 15.995 14.8286 16.064C14.7491 15.995 14.6618 15.9325 14.5672 15.8778L0.405273 7.70142Z" fill="#FEC53D"/>
</svg>
