<svg width="28" height="31" viewBox="0 0 28 31" fill="none" xmlns="http://www.w3.org/2000/svg">
<path opacity="0.78" fill-rule="evenodd" clip-rule="evenodd" d="M12.6309 9.80882C12.651 9.54832 12.8682 9.34717 13.1294 9.34717H13.5473C13.8041 9.34717 14.0192 9.54182 14.0448 9.79742L14.6664 16.0138L19.0812 18.5365C19.237 18.6256 19.3331 18.7912 19.3331 18.9707V19.3592C19.3331 19.6889 19.0196 19.9283 18.7015 19.8416L12.3984 18.1226C12.167 18.0595 12.0131 17.841 12.0315 17.6018L12.6309 9.80882Z" fill="#FF9066"/>
<path opacity="0.901274" fill-rule="evenodd" clip-rule="evenodd" d="M6.72176 0.984587C6.45765 0.669838 5.94771 0.790308 5.85238 1.18997L4.21891 8.03811C4.14123 8.36376 4.39931 8.67226 4.73356 8.65332L11.7783 8.2541C12.1892 8.23082 12.3976 7.74879 12.133 7.43351L10.3316 5.28667C11.4965 4.88862 12.7317 4.68072 14 4.68072C20.2592 4.68072 25.3333 9.75482 25.3333 16.014C25.3333 22.2733 20.2592 27.3474 14 27.3474C7.74077 27.3474 2.66667 22.2733 2.66667 16.014C2.66667 14.9633 2.80896 13.9341 3.08641 12.945L0.518845 12.2248C0.180793 13.43 0 14.7009 0 16.014C0 23.746 6.26801 30.014 14 30.014C21.732 30.014 28 23.746 28 16.014C28 8.28206 21.732 2.01405 14 2.01405C12.0551 2.01405 10.2029 2.41063 8.51973 3.12733L6.72176 0.984587Z" fill="#FF9066"/>
</svg>
