<svg width="32" height="24" viewBox="0 0 32 24" fill="none" xmlns="http://www.w3.org/2000/svg">
<path opacity="0.587821" fill-rule="evenodd" clip-rule="evenodd" d="M6.66699 5.33333C6.66699 8.27885 9.05481 10.6667 12.0003 10.6667C14.9458 10.6667 17.3337 8.27885 17.3337 5.33333C17.3337 2.38781 14.9458 0 12.0003 0C9.05481 0 6.66699 2.38781 6.66699 5.33333ZM20.0003 10.6667C20.0003 12.8758 21.7912 14.6667 24.0003 14.6667C26.2095 14.6667 28.0003 12.8758 28.0003 10.6667C28.0003 8.45753 26.2095 6.66667 24.0003 6.66667C21.7912 6.66667 20.0003 8.45753 20.0003 10.6667Z" fill="#8280FF"/>
<path fill-rule="evenodd" clip-rule="evenodd" d="M11.9778 13.3335C5.68255 13.3335 0.517678 16.5689 0.000868912 22.9324C-0.0272823 23.2791 0.635616 24.0002 0.970003 24.0002H22.9956C23.9972 24.0002 24.0128 23.1941 23.9972 22.9335C23.6065 16.3911 18.3616 13.3335 11.9778 13.3335ZM31.2746 24.0002L26.1333 24.0002C26.1333 20.9989 25.1417 18.2293 23.4683 16.001C28.0103 16.0506 31.7189 18.347 31.998 23.2002C32.0092 23.3956 31.998 24.0002 31.2746 24.0002Z" fill="#8280FF"/>
</svg>
